<svg id="Layer_1" xmlns="http://www.w3.org/2000/svg" viewBox="0 0 226.3 220.94"><style>.st2{fill:none;stroke:gray;stroke-width:6;stroke-miterlimit:10}</style><g id="XMLID_14006_"><g id="XMLID_14008_"><path id="XMLID_14018_" class="st2" d="M127.73 82.32H58.15v-26.8c0-2.9 2.35-5.25 5.25-5.25h59.08c2.9 0 5.25 2.35 5.25 5.25v26.8z"/><path id="XMLID_14017_" class="st2" d="M129.75 100.22a15.838 15.838 0 0 0-4.4-5.54 13.725 13.725 0 0 1-4.82-7.81l-.98-4.55"/><path id="XMLID_14016_" class="st2" d="M62.89 91.98h22.86"/><path id="XMLID_14015_" class="st2" d="M70.67 69.55v12.77"/><path id="XMLID_14014_" class="st2" d="M81.8 69.55v12.77"/><path id="XMLID_14013_" class="st2" d="M92.94 69.55v12.77"/><path id="XMLID_14012_" class="st2" d="M104.08 69.55v12.77"/><path id="XMLID_14011_" class="st2" d="M115.22 69.55v12.77"/><path id="XMLID_14010_" class="st2" d="M130.79 167.64c3.89.37 9.47.3 15.51-1.91 2.03-.74 5.22-1.94 8.57-4.74 3.56-2.97 5.38-6.13 6.48-8.09 3.32-5.89 4.21-11.64 4.43-15.43-1.27 1.62-3.43 3.97-6.68 5.77-5.66 3.13-9.6 1.81-13.82 4.88-1.8 1.31-4.12 3.76-5.55 8.73 0 0 4.41 3 11.96-3.5"/><path id="XMLID_14009_" class="st2" d="M147.87 105.54c-.65 1.04-2.59 4.4-2.2 9.03.4 4.74 2.99 7.77 3.8 8.66 4.61-2.92 6.41-6.02 7.21-8.22 2.63-7.19-2.65-12.71-2.85-23.19-.07-3.65.45-9.12 3.57-15.89-11.22 9.71-16.02 19.12-18.35 25.56-3.79 10.47-3.8 21.55-4.18 32.53-.24 6.77-1.04 14.07-3.71 20.34-1.89 4.43-5.06 8.53-9.29 10.91-5.25 2.95-11.29 2.53-17.1 2.39-4.4-.11-8.88.05-13.3.05H73.58c-4.92 0-9.78-1.08-14.24-3.15l-.36-.17a8.022 8.022 0 0 1-4.63-7.28v-49.98c0-4.85 2.2-9.44 5.97-12.45 2.45-1.97 4.16-4.73 4.82-7.81l.98-4.55"/></g><path id="XMLID_14007_" class="st2" d="M111.39 122.22v11.32h-11.15v11.23H89.02v-11.23H77.87v-11.32h11.15v-11.25h11.22v11.25z"/></g></svg>