<svg id="Layer_1" xmlns="http://www.w3.org/2000/svg" viewBox="0 0 226.3 220.94"><style>.st2{fill:none;stroke:gray;stroke-width:6;stroke-miterlimit:10}</style><g id="XMLID_113_"><path id="XMLID_150_" class="st2" d="M69.05 130.29c1.14-3.15 2.13-4.86 4.7-12.3"/><path id="XMLID_149_" class="st2" d="M151.18 141.35a160.801 160.801 0 0 1-43.94 5.67c-16.67-.16-30.68-2.89-41.08-5.75.45-2.73 1.14-5.72 2.18-8.94.24-.77.48-1.44.71-2.05 9.71 2.67 22.78 5.2 38.29 5.35 16.82.16 30.89-2.53 41.08-5.31.15.43.31.91.48 1.43 1.11 3.49 1.82 6.69 2.28 9.6z"/><path id="XMLID_148_" class="st2" d="M143.47 117.39c2.74 7.91 3.69 9.36 4.94 12.93"/><path id="XMLID_147_" class="st2" d="M66.05 170.48a89.247 89.247 0 0 1-.96-18.65c.15-2.78.34-6.35 1.07-10.55 10.4 2.86 24.41 5.59 41.08 5.75 18.01.18 33.05-2.7 43.93-5.68.6 3.75.79 7.04.95 9.89.43 6.98.02 13.45-.83 19.24"/><path id="XMLID_146_" class="st2" d="M68.13 51.56c.05.81.12 1.55.19 2.24.05.47.27 2.63.82 5.47 1.04 5.52 2.48 9.53 3.02 11.04 1.33 3.82 3.06 9.64 4.72 18.2"/><path id="XMLID_145_" class="st2" d="M140.88 87.15c1.34-7.75 2.94-13.2 4.22-16.85.57-1.66 2.09-5.83 3.14-11.58.52-2.87.73-5.02.77-5.56.05-.51.09-1.04.13-1.61"/><path id="XMLID_125_" class="st2" d="M71.52 68.23c7.6-3.17 21.04-7.64 38.26-7.37 15.66.24 27.95 4.3 35.31 7.37"/><g id="XMLID_114_"><g id="XMLID_120_"><path id="XMLID_124_" class="st2" d="M150.32 91.67c2.31.54 3.58 1.14 3.58 1.77 0 .63-1.28 1.23-3.58 1.77-6.89 1.63-22.96 2.78-41.69 2.78-18.48 0-34.37-1.11-41.4-2.71-2.49-.56-3.86-1.19-3.86-1.84 0-.65 1.38-1.28 3.86-1.84"/><path id="XMLID_123_" class="st2" d="M63.36 107.01c0 .49.78.97 2.24 1.41 5.92 1.83 22.95 3.14 43.03 3.14 20.4 0 37.65-1.34 43.31-3.21 1.29-.43 1.97-.87 1.97-1.33"/><path id="XMLID_122_" class="st2" d="M63.36 93.44v13.57"/><path id="XMLID_121_" class="st2" d="M153.9 93.44v13.57"/></g><path id="XMLID_119_" class="st2" d="M77.59 102.04v-5.3"/><path id="XMLID_118_" class="st2" d="M92.28 103.37v-5.7"/><path id="XMLID_117_" class="st2" d="M106.97 103.37v-5.39"/><path id="XMLID_116_" class="st2" d="M121.66 102.75v-4.97"/><path id="XMLID_115_" class="st2" d="M136.34 101.49v-4.46"/></g></g></svg>