<svg id="Layer_1" xmlns="http://www.w3.org/2000/svg" viewBox="0 0 226.3 220.94"><style>.st2{fill:none;stroke:gray;stroke-width:6;stroke-miterlimit:10}</style><g id="XMLID_50_"><g id="XMLID_10774_"><path id="XMLID_10780_" class="st2" d="M120.32 122.19c.36-.14.74-.17 1.1-.09.7.16 1.27.75 1.47 1.44.19.68-.05 1.29-.32 1.9-.54 1.2-1.3 2.26-2.17 3.25l-.84-1.16"/><path id="XMLID_10779_" class="st2" d="M99.98 122.19c-.36-.14-.74-.17-1.1-.09-.7.16-1.28.75-1.47 1.44-.19.68.05 1.29.32 1.9.54 1.2 1.3 2.26 2.17 3.25l.84-1.16"/><path id="XMLID_10778_" class="st2" d="M77.9 151.55c1.12 2.56 3.72 8.59 9.68 12.78 2.17 1.52 3.92 2.2 4.33 2.35 4.9 1.85 10.4 1.38 15.16-.83 1.95-.91 4.21-.91 6.16 0 4.76 2.21 10.25 2.68 15.16.83.41-.15 2.17-.83 4.34-2.35 5.96-4.19 8.56-10.22 9.68-12.78 11.09-25.46 16.64-31.24 15.92-45.2-.11-2.25-.43-4.09-.88-6.63-1.96-11.07-11.36-20.24-23.61-22.05-5.74-.85-11.3-.1-15.86 2.27-.04.03-.08.04-.13.07-2.45 1.29-5.05 1.99-7.69 2.1-2.63-.11-5.24-.81-7.69-2.1-.04-.03-.08-.04-.13-.07-4.56-2.37-10.12-3.12-15.86-2.27-12.25 1.8-21.65 10.97-23.61 22.05-.45 2.54-.77 4.38-.88 6.63-.73 13.96 4.82 19.74 15.91 45.2z"/><path id="XMLID_10777_" class="st2" d="M114.07 65.86s6.28-20.58 27.02-11.54c0 0 15.66 8.17 17.26 8.33.01 0 .04 0 .04.01.07.22-7.51 4.21-14.6 4.8-8.1.67-9.91-3.57-17.15-3.18-3.57.19-8.64 1.52-14.62 6.94.68-1.77 1.36-3.56 2.05-5.36z"/><path id="XMLID_10776_" class="st2" d="M112.02 71.24s-2.28 5.02-1.1 10.38"/><path id="XMLID_10775_" class="st2" d="M97.22 100.53c-8.71.84-14.99 9.34-13.88 18.71.15 1.25.34 2.53.58 3.84 1.03 5.6 2.71 10.41 4.53 14.38 1.69 3.68 4.71 6.72 8.5 8.21 3.87 1.52 7.9.43 11.86.03 4.87-.49 10.24 1.81 14.93-.11 3.71-1.51 6.66-4.52 8.32-8.14 1.82-3.96 3.5-8.77 4.53-14.38.24-1.31.43-2.59.58-3.84.25-2.13.44-7.79-3.32-12.64-3.7-4.77-9.08-5.83-10.56-6.07"/></g></g></svg>