<?xml version="1.0" encoding="utf-8"?>
<!-- Generator: Adobe Illustrator 23.0.2, SVG Export Plug-In . SVG Version: 6.00 Build 0)  -->
<svg version="1.1" id="Layer_1" xmlns="http://www.w3.org/2000/svg" xmlns:xlink="http://www.w3.org/1999/xlink" x="0px" y="0px"
	 viewBox="0 0 226.3 220.94" style="enable-background:new 0 0 226.3 220.94;" xml:space="preserve">
<style type="text/css">
	.st0{fill:#808080;}
	.st1{fill:none;stroke:#3F4447;stroke-linecap:round;stroke-linejoin:round;stroke-miterlimit:10;}
	.st2{fill:none;stroke:#808080;stroke-width:6;stroke-miterlimit:10;}
	.st3{fill:#27466B;}
	.st4{fill:#3C4051;}
	.st5{fill:none;stroke:#808080;stroke-width:2;stroke-miterlimit:10;}
	.st6{fill:none;stroke:#808080;stroke-width:1.5;stroke-miterlimit:10;}
</style>
<g id="XMLID_12337_">
	<path id="XMLID_12363_" class="st2" d="M119.74,129.96c-1.88,0.86-5.04,2.65-8.91,2.66c-3.96,0.02-7.01-1.79-8.91-2.66
		c0.52-0.69,1.04-1.38,1.55-2.07c0.65-0.87,1.5-1.48,2.43-1.77c0.22-0.07,0.5-0.14,0.98-0.18c1.95-0.16,2.4,0.61,3.98,0.64
		c1.61,0.02,2.02-0.76,3.98-0.56c0.48,0.05,0.84,0.13,1.22,0.28c0.79,0.31,1.51,0.86,2.08,1.6
		C118.68,128.59,119.21,129.27,119.74,129.96z"/>
	<path id="XMLID_12362_" class="st2" d="M104.84,136.61l1.47,1.14c0.74,0.38,1.55,0.61,2.39,0.68c0.17,0.02,0.35,0.02,0.53,0.02
		h3.35c0.33,0,0.66-0.03,0.98-0.08c0.8-0.12,1.57-0.4,2.26-0.81l0.9-0.73"/>
	<path id="XMLID_12361_" class="st2" d="M115.96,114.58c-0.14,0.58-0.57,0.71-2.27,1.89c-1.66,1.17-4.72,1.17-6.38,0
		c-1.7-1.18-2.13-1.31-2.27-1.89"/>
	<g id="XMLID_12358_">
		<path id="XMLID_12360_" class="st2" d="M81.53,96.79c0.3-0.23,1.22-0.87,2.56-0.9c1.48-0.03,2.49,0.71,2.77,0.93
			c0.92,0.79,2.41,1.81,4.44,2.27c1.54,0.35,2.81,0.25,3.49,0.18c0.8-0.07,1.4-0.2,4.6-1.1c1.09-0.3,2-0.57,2.66-0.76"/>
		<path id="XMLID_12359_" class="st2" d="M87.12,101.03c0.67-1.72,2.73-2.12,3.27-2.21"/>
	</g>
	<g id="XMLID_12355_">
		<path id="XMLID_12357_" class="st2" d="M139.22,96.79c-0.3-0.23-1.22-0.87-2.56-0.9c-1.48-0.03-2.49,0.71-2.77,0.93
			c-0.92,0.79-2.41,1.81-4.44,2.27c-1.54,0.35-2.81,0.25-3.49,0.18c-0.8-0.07-1.4-0.2-4.6-1.1c-1.09-0.3-2-0.57-2.66-0.76"/>
		<path id="XMLID_12356_" class="st2" d="M130.37,98.82c0.54,0.09,2.59,0.49,3.27,2.21"/>
	</g>
	<path id="XMLID_12354_" class="st2" d="M75.88,120.34c-2.18-8.18-3.7-17.94-3.53-27.6c0.97-2.8,2.51-6.68,4.91-11.04
		c2.54-4.61,7.15-12.8,16.29-19.69c2.47-1.86,6.11-4.26,10.97-6.36"/>
	<path id="XMLID_12353_" class="st2" d="M145.28,120.09c2.1-7.92,3.31-18.32,3.03-27.46c-0.52-1.22-1.29-2.99-2.29-5.09
		c-8.32-17.51-21.56-31.43-40.07-37.97"/>
	<path id="XMLID_12352_" class="st2" d="M101.93,86.81c0,0-2.03-2.7-6.76-3.6c-4.73-0.9-10.59,0-10.59,0"/>
	<path id="XMLID_12351_" class="st2" d="M116.34,86.76c0,0,2.03-2.7,6.76-3.6c4.73-0.9,10.59,0,10.59,0"/>
	<g id="XMLID_12346_">
		<g id="XMLID_12347_">
			<path id="XMLID_12350_" class="st2" d="M101.93,165.47c2.88-4.26,2.81-7.42,2.56-9.03c-0.58-3.66-3.22-6.13-8.42-10.98
				c0,0-5.83-5.44-7.93-7.84c-0.03-0.04-0.41-0.47-0.92-1.05c-0.63-0.72-1.36-1.54-2.16-2.45c-4.92-5.56-6.02-6.02-7.19-6.97
				c-2.21-1.79-5.42-1.6-7.48,0.36l8.4,12.54c1.1,2.47,2.2,4.94,3.3,7.4"/>
			<path id="XMLID_12349_" class="st2" d="M86.18,169.79l-3.21-5.07c-2.9-2.71-18.14-22.11-22.07-28.29
				c-1.48-1.73-2.39-3.87-2.61-6.14c-0.41-4.24-0.99-11.15-0.73-13.87l3.76-20.63c0.05-0.49,0.55-0.41,1.15-0.14
				c1.25,0.57,2.21,1.63,2.77,2.89c0.8,1.82-0.23,5.09-0.51,7.61l0,10.1l0.9,2.74l1.83,4.2"/>
		</g>
	</g>
	<g id="XMLID_12341_">
		<g id="XMLID_12342_">
			<path id="XMLID_12345_" class="st2" d="M118.34,165.47c-2.88-4.26-2.81-7.42-2.56-9.03c0.58-3.66,3.22-6.13,8.42-10.98
				c0,0,5.83-5.44,7.93-7.84c0.03-0.04,0.41-0.47,0.92-1.05c0.63-0.72,1.36-1.54,2.16-2.45c4.92-5.56,6.02-6.02,7.19-6.97
				c2.21-1.79,5.42-1.6,7.48,0.36l-8.4,12.54c-1.1,2.47-2.2,4.94-3.3,7.4"/>
			<path id="XMLID_12344_" class="st2" d="M134.09,169.79l3.21-5.07c2.9-2.71,18.14-22.11,22.07-28.29
				c1.48-1.73,2.39-3.87,2.61-6.14c0.41-4.24,0.99-11.15,0.73-13.87l-3.76-20.63c-0.05-0.49-0.55-0.41-1.14-0.14
				c-1.25,0.57-2.21,1.63-2.77,2.89c-0.8,1.82,0.23,5.09,0.51,7.61l0,10.1l-0.9,2.74l-1.83,4.2"/>
		</g>
	</g>
	<path id="XMLID_12340_" class="st2" d="M104.59,154.97c0.95,0.53,3.2,1.61,6.22,1.47c2.41-0.11,4.22-0.95,5.15-1.47"/>
	<path id="XMLID_12339_" class="st2" d="M72.35,92.74c0,0-7.29-10-7.83-15.5"/>
	<path id="XMLID_12338_" class="st2" d="M148.43,92.74c0,0,7.29-10,7.83-15.5"/>
</g>
</svg>
