<svg id="Layer_1" xmlns="http://www.w3.org/2000/svg" viewBox="0 0 226.3 220.94"><style>.st2{fill:none;stroke:gray;stroke-width:6;stroke-miterlimit:10}</style><g id="XMLID_8_"><path id="XMLID_68_" fill="gray" d="M120.52 118.23l-22.11 21.38 8.7 3.31-8.43 21.75 20.69-22.77-7.26-2.56z"/></g><g id="XMLID_41_"><g id="XMLID_802_"><path id="XMLID_812_" class="st2" d="M74.62 142.56l-6.79 23.04"/><g id="XMLID_803_"><path id="XMLID_811_" class="st2" d="M130.8 58.71s.34 21.1-11.55 30.26c-5.28 4.07-12.52 4.07-17.8 0C89.56 79.81 89.9 58.71 89.9 58.71c-.29-11.47 8.75-20.98 19.68-21.39 11.47-.42 21.51 9.33 21.22 21.39z"/><path id="XMLID_810_" class="st2" d="M50.71 164.53l7.92-48.4c.68-4.93 4.29-8.96 9.13-10.17l23.4-5.86a8.75 8.75 0 0 0 5.54-4.24c1.33-2.4 2.81-5.64 2.85-8.19"/><path id="XMLID_809_" class="st2" d="M74.62 142.56c1.05 1.96 2.25 3.15 3.06 3.83 4.05 3.4 9.48 3.38 14.14 3.36 1.66-.01 3.01-.11 3.86-.2"/><path id="XMLID_808_" class="st2" d="M76.79 145.79v21.12"/><path id="XMLID_807_" class="st2" d="M169.59 164.53l-7.92-48.4c-.68-4.93-4.29-8.96-9.13-10.17l-23.4-5.86a8.75 8.75 0 0 1-5.54-4.24c-1.33-2.4-2.81-5.64-2.85-8.19"/><path id="XMLID_806_" class="st2" d="M145.69 142.56l6.78 23.04"/><path id="XMLID_805_" class="st2" d="M145.69 142.56c-1.05 1.96-2.25 3.15-3.06 3.83-4.05 3.4-9.48 3.38-14.14 3.36a39.91 39.91 0 0 1-3.86-.2"/><path id="XMLID_804_" class="st2" d="M143.51 145.79v21.12"/></g></g></g></svg>